HIERARCHY
ROOT hip
{
  OFFSET 0 0 0
  CHANNELS 6 Xposition Yposition Zposition Zrotation Yrotation Xrotation
  JOINT abdomen
  {
    OFFSET 0 20.6881 -0.73152
    CHANNELS 3 Zrotation Xrotation Yrotation
    JOINT chest
    {
      OFFSET 0 11.7043 -0.48768
      CHANNELS 3 Zrotation Xrotation Yrotation
      JOINT neck
      {
        OFFSET 0 22.1894 -2.19456
        CHANNELS 3 Zrotation Xrotation Yrotation
        JOINT head
        {
          OFFSET -0.24384 7.07133 1.2192
          CHANNELS 3 Zrotation Xrotation Yrotation
          JOINT leftEye
          {
            OFFSET 4.14528 8.04674 8.04672
            CHANNELS 3 Zrotation Xrotation Yrotation
            End Site
            {
              OFFSET 1 0 0
            }
          }
          JOINT rightEye
          {
            OFFSET -3.6576 8.04674 8.04672
            CHANNELS 3 Zrotation Xrotation Yrotation
            End Site
            {
              OFFSET 1 0 0
            }
          }
        }
      }
      JOINT rCollar
      {
        OFFSET -2.68224 19.2634 -4.8768
        CHANNELS 3 Zrotation Xrotation Yrotation
        JOINT rShldr
        {
          OFFSET -8.77824 -1.95073 1.46304
          CHANNELS 3 Zrotation Xrotation Yrotation
          JOINT rForeArm
          {
            OFFSET -28.1742 -1.7115 0.48768
            CHANNELS 3 Zrotation Xrotation Yrotation
            JOINT rHand
            {
              OFFSET -22.5879 0.773209 7.07136
              CHANNELS 3 Zrotation Xrotation Yrotation
              JOINT rThumb1
              {
                OFFSET -1.2192 -0.487915 3.41376
                CHANNELS 3 Zrotation Xrotation Yrotation
                JOINT rThumb2
                {
                  OFFSET -3.37035 -0.52449 3.41376
                  CHANNELS 3 Zrotation Xrotation Yrotation
                  End Site
                  {
                    OFFSET -1.78271 -1.18214 1.43049
                  }
                }
              }
              JOINT rIndex1
              {
                OFFSET -7.75947 0.938293 5.60832
                CHANNELS 3 Zrotation Xrotation Yrotation
                JOINT rIndex2
                {
                  OFFSET -2.54057 -0.884171 1.56538
                  CHANNELS 3 Zrotation Xrotation Yrotation
                  End Site
                  {
                    OFFSET -1.62519 -0.234802 1.16502
                  }
                }
              }
              JOINT rMid1
              {
                OFFSET -8.24714 1.18213 3.41376
                CHANNELS 3 Zrotation Xrotation Yrotation
                JOINT rMid2
                {
                  OFFSET -3.10165 -0.590103 1.0647
                  CHANNELS 3 Zrotation Xrotation Yrotation
                  End Site
                  {
                    OFFSET -2.48547 -0.328903 0.83742
                  }
                }
              }
              JOINT rRing1
              {
                OFFSET -8.82822 0.546677 1.51678
                CHANNELS 3 Zrotation Xrotation Yrotation
                JOINT rRing2
                {
                  OFFSET -2.60934 -0.819778 -0.0198488
                  CHANNELS 3 Zrotation Xrotation Yrotation
                  End Site
                  {
                    OFFSET -2.33842 -0.294052 0.168128
                  }
                }
              }
              JOINT rPinky1
              {
                OFFSET -8.27202 -0.0477905 -0.4584
                CHANNELS 3 Zrotation Xrotation Yrotation
                JOINT rPinky2
                {
                  OFFSET -1.82734 -0.647385 -0.700984
                  CHANNELS 3 Zrotation Xrotation Yrotation
                  End Site
                  {
                    OFFSET -1.69225 -0.51767 -0.607171
                  }
                }
              }
            }
          }
        }
      }
      JOINT lCollar
      {
        OFFSET 2.68224 19.2634 -4.8768
        CHANNELS 3 Zrotation Xrotation Yrotation
        JOINT lShldr
        {
          OFFSET 8.77824 -1.95073 1.46304
          CHANNELS 3 Zrotation Xrotation Yrotation
          JOINT lForeArm
          {
            OFFSET 28.1742 -1.7115 0.48768
            CHANNELS 3 Zrotation Xrotation Yrotation
            JOINT lHand
            {
              OFFSET 22.5879 0.773209 7.07136
              CHANNELS 3 Zrotation Xrotation Yrotation
              JOINT lThumb1
              {
                OFFSET 1.2192 -0.487915 3.41376
                CHANNELS 3 Zrotation Xrotation Yrotation
                JOINT lThumb2
                {
                  OFFSET 3.37035 -0.52449 3.41376
                  CHANNELS 3 Zrotation Xrotation Yrotation
                  End Site
                  {
                    OFFSET 1.78271 -1.18214 1.43049
                  }
                }
              }
              JOINT lIndex1
              {
                OFFSET 7.75947 0.938293 5.60832
                CHANNELS 3 Zrotation Xrotation Yrotation
                JOINT lIndex2
                {
                  OFFSET 2.54057 -0.884171 1.56538
                  CHANNELS 3 Zrotation Xrotation Yrotation
                  End Site
                  {
                    OFFSET 1.62519 -0.234802 1.16502
                  }
                }
              }
              JOINT lMid1
              {
                OFFSET 8.24714 1.18213 3.41376
                CHANNELS 3 Zrotation Xrotation Yrotation
                JOINT lMid2
                {
                  OFFSET 3.10165 -0.590103 1.0647
                  CHANNELS 3 Zrotation Xrotation Yrotation
                  End Site
                  {
                    OFFSET 2.48547 -0.328903 0.83742
                  }
                }
              }
              JOINT lRing1
              {
                OFFSET 8.82822 0.546677 1.51678
                CHANNELS 3 Zrotation Xrotation Yrotation
                JOINT lRing2
                {
                  OFFSET 2.60934 -0.819778 -0.0198488
                  CHANNELS 3 Zrotation Xrotation Yrotation
                  End Site
                  {
                    OFFSET 2.33842 -0.294052 0.168128
                  }
                }
              }
              JOINT lPinky1
              {
                OFFSET 8.27202 -0.0477905 -0.4584
                CHANNELS 3 Zrotation Xrotation Yrotation
                JOINT lPinky2
                {
                  OFFSET 1.82734 -0.647385 -0.700984
                  CHANNELS 3 Zrotation Xrotation Yrotation
                  End Site
                  {
                    OFFSET 1.69225 -0.51767 -0.607171
                  }
                }
              }
            }
          }
        }
      }
    }
  }
  JOINT rButtock
  {
    OFFSET -8.77824 4.35084 1.2192
    CHANNELS 3 Zrotation Xrotation Yrotation
    JOINT rThigh
    {
      OFFSET 0 -1.70687 -2.19456
      CHANNELS 3 Zrotation Xrotation Yrotation
      JOINT rShin
      {
        OFFSET 0 -36.8199 0.73152
        CHANNELS 3 Zrotation Xrotation Yrotation
        JOINT rFoot
        {
          OFFSET 0.73152 -45.1104 -5.12064
          CHANNELS 3 Zrotation Xrotation Yrotation
          End Site
          {
            OFFSET -1.1221 -3.69964 12.103
          }
        }
      }
    }
  }
  JOINT lButtock
  {
    OFFSET 8.77824 4.35084 1.2192
    CHANNELS 3 Zrotation Xrotation Yrotation
    JOINT lThigh
    {
      OFFSET 0 -1.70687 -2.19456
      CHANNELS 3 Zrotation Xrotation Yrotation
      JOINT lShin
      {
        OFFSET 0 -36.8199 0.73152
        CHANNELS 3 Zrotation Xrotation Yrotation
        JOINT lFoot
        {
          OFFSET -0.73152 -45.1104 -5.12064
          CHANNELS 3 Zrotation Xrotation Yrotation
          End Site
          {
            OFFSET 1.1221 -3.69964 12.103
          }
        }
      }
    }
  }
}
MOTION
Frames:	6
Frame Time:	0.03333
45.258900000000004 39.0189 8.1233 -6.172401 0.756193 8.933581 0.322798 14.172358 113.458994 -11.230915 4.723704 -91.949344 -9.519765 29.767304 -108.823247 33.153901 26.28485 142.486133 0.002489 -0.0 -0.001717 0.002489 -0.0 -0.001717 -149.905179 22.42178 154.975348 -173.733497 61.218742 139.042731 -135.936754 70.055174 -112.073965 -4.192139 16.445719 0.478594 -172.355541 -10.035602 89.940189 -91.043458 11.071178 34.937742 -162.920231 -37.929025 122.629468 83.539727 -68.824104 29.817953 -0.287266 0.832777 0.158862 168.035642 -64.093136 133.236206 -145.119482 0.267924 -179.212157 11.19552 13.761029 -7.376709 -145.50141 13.103298 -142.111055 1.196461 -2.668254 -2.84261 155.614148 -4.23627 -161.991411 -148.785211 11.40142 174.291363 151.659852 5.957924 -29.904225 176.303463 -20.718475 -145.496546 0.491689 0.48468 -0.076814 109.792699 3.344389 -99.915797 -2.326696 -3.867582 1.25938 -87.526553 -60.125315 -35.712112 82.840046 61.110783 -74.532562 -58.673599 -74.801301 -31.379984 73.623742 72.972909 -91.553826 -5.209553 26.573802 0.961891 -13.063825 44.652788 -10.812416 26.38969 -41.987365 26.384274 -0.000292 0.000478 0.000375 -82.666809 -39.404241 -170.765589 -113.368198 -17.632044 -2.450803 174.030735 5.801996 -69.7332 -179.978695 75.748983 -0.014577 -139.553228 -27.261851 61.749671 120.889267 16.712396 66.325481 -81.406759 13.332923 -164.918572
45.758700000000005 39.650600000000004 8.0908 -7.001351 0.818848 9.216851 1.295119 14.562353 112.583169 -11.2822 4.769315 -91.194992 10.86088 24.183391 97.403769 -32.870883 8.986611 -56.758256 0.003083 -0.0 -0.001424 -0.002327 -0.0 0.003465 -159.220109 -48.028384 170.415832 -178.337376 -12.719188 -150.962427 -70.933372 -42.078398 56.285965 10.354543 -26.319295 4.227818 4.531314 -4.513907 -0.521642 -116.021774 -0.654077 105.116131 -151.352033 -17.159074 121.132337 -163.123499 -19.396481 119.553533 -160.57301 -6.359378 143.198252 -175.518293 -39.364159 142.849966 0.003737 1.687546 0.530087 11.435927 -36.41973 -4.391248 5.66042 16.872688 5.087471 -80.854894 -54.463677 -80.128783 150.168441 21.535086 -155.274944 -171.16869 58.255167 -148.559114 -172.341651 -36.85659 -28.610496 163.990558 17.304857 -137.689558 5.225547 5.067005 -1.028685 141.408542 -46.906287 -116.667908 -19.567918 -35.040491 5.985533 177.44739 -39.146324 -106.314505 0.057144 0.167771 -0.034123 17.943991 42.27501 -14.393571 145.118811 0.226373 179.199984 149.417042 -38.762827 171.995096 1.179898 -2.984776 1.093485 -14.62629 41.791289 -8.480749 -0.003806 -0.000206 -0.000951 -80.315961 -40.004208 -170.700339 -116.312276 -15.944759 -49.384059 92.090817 -40.817296 169.828922 0.0 0.000989 -0.00062 116.732322 -48.785449 -16.715993 -118.134158 -22.718899 -40.144489 53.406124 -32.07625 125.358541
46.446799999999996 40.5055 8.0477 -7.859864 0.898781 9.451709 2.194297 15.040463 115.025814 -10.998651 5.347784 -93.573766 9.50667 19.945267 72.66562 -29.728108 -5.296796 -35.799303 -0.001589 0.0 -0.004774 -0.001267 -0.0 0.000103 0.163363 -0.990093 -0.21791 45.276372 20.930919 18.612072 -15.210194 1.901955 108.952273 -1.750678 8.686195 0.330228 -178.9283 -16.453331 89.422327 166.106095 -31.409421 103.089953 103.838157 -76.253752 53.539418 6.982359 16.074013 -2.9347 -12.8435 28.997155 9.149079 86.283207 -78.319081 57.441929 -31.711548 -66.107885 -46.286474 -72.817048 82.055764 90.453044 -124.850453 -29.038 -122.62113 -8.74547 -23.551547 -11.805283 -3.206196 -26.010319 5.106349 -57.414157 14.165649 -0.141259 80.224623 -36.343184 -63.450193 -57.461929 -82.606639 -40.354642 78.02975 38.689651 -42.413288 -173.673501 -48.148631 -75.325475 151.352426 -17.158386 -121.133675 62.152698 57.360874 -46.046597 36.035294 51.723061 -29.83292 167.879729 -19.501991 -144.190874 0.001256 0.022436 -0.008358 -10.895535 -9.258743 1.187323 145.172848 12.067069 141.824233 -1.815629 -1.222863 2.372563 -179.985474 75.74844 -0.009939 132.298625 0.082764 -89.924009 -114.45893 -6.351283 -69.237795 28.383943 22.050024 145.339567 179.99481 75.749421 0.005355 -139.112859 -26.99413 -81.110643 -119.7776 15.46084 -82.765527 70.434654 20.078768 154.917378
47.4123 41.6383 7.9525 -8.442354 0.922937 9.798334 3.620552 18.826211 22.668309 -7.255847 -13.680573 -3.010605 8.528378 18.543512 63.232554 -27.600782 -10.727353 -27.421166 0.00102 0.0 0.000442 0.00102 0.0 0.000442 -120.449045 60.637777 124.07633 -132.890094 41.598016 107.057445 -15.560971 -15.7515 -145.695316 154.522712 -46.094354 134.370111 -171.602891 -9.286478 89.949811 -34.747831 -26.987822 4.721836 -19.171189 24.114274 13.381106 -15.192366 28.356878 9.528162 9.41821 -29.555142 -3.209584 -42.181981 58.526523 36.115348 -145.120899 2.055758 -179.774566 -149.601036 -38.651817 -172.034132 44.732129 86.377595 -5.363154 -154.319085 31.028634 -146.305408 142.973794 39.431812 -147.390509 -143.862628 -6.331464 -153.561769 92.67396 -33.212137 -62.652981 -149.70047 -77.25004 -128.849338 -71.83114 -48.263771 -25.791694 114.95686 32.710364 -81.816047 27.171544 30.468795 -19.890548 1.766303 13.373692 -1.641686 151.478131 17.842336 -137.539773 -164.353568 -66.197861 -129.999928 -0.002202 0.063841 -0.019133 148.936806 42.727896 -163.651019 157.329676 57.246246 150.512561 -1.90317 0.85896 1.396052 -0.000414 0.000275 -0.0 -73.494576 -39.858838 -66.424388 167.007704 75.973433 -73.492327 -57.338714 -48.568713 -129.861389 -0.000414 0.000275 -0.0 115.82894 -51.90108 -59.165038 -126.710456 -59.742004 10.293579 82.147937 25.762576 7.539853
48.611900000000006 43.0807 7.8712 -8.373509 1.041795 10.488403 4.082591 19.241297 -0.0 -1.936881 -15.500599 19.924209 -2.253573 14.660167 -0.864275 10.123 -26.03364 41.840657 3.7e-05 0.0 0.001774 3.7e-05 0.0 0.001774 3.53521 -62.111223 -13.058131 35.083603 -6.385443 -23.289084 -88.189108 82.39857 -163.678541 -6.281397 23.335057 0.954656 88.928654 -50.830501 37.599519 -15.648852 -43.213913 -30.247728 174.385353 -63.060434 113.276202 -76.898103 55.810241 63.299435 -160.992117 -7.659189 143.393129 -85.91669 63.862413 77.759016 -145.098968 -1.522323 -178.650443 9.244051 -11.19495 -10.517997 -25.536645 -38.08871 -24.59613 -75.500084 -54.554176 -75.905534 6.028979 25.557197 -7.218933 -37.29056 14.467641 -44.175241 72.282353 -59.776877 -37.991454 -0.395075 -47.652065 6.407728 164.697765 -2.372296 -89.584977 160.582519 -3.638125 -81.676632 46.208729 39.653747 -36.317093 169.657903 -19.075321 -111.882395 36.036027 51.72317 -29.832193 -11.578599 -24.899993 1.457174 77.741847 72.902205 -95.870268 -5.672281 17.452333 2.372727 1.204519 -3.04754 1.115051 -1.455769 -2.971437 0.927035 179.784238 75.749835 0.166298 132.740815 3.694791 91.45345 95.38144 4.856939 -84.265014 155.123052 -21.909398 20.826292 0.000517 -2e-05 -0.000664 111.209648 -55.585048 159.984283 104.095759 18.092928 -99.334592 93.965141 -12.0138 0.164497
50.147600000000004 44.888600000000004 7.824299999999999 -8.374889 1.413251 11.340374 2.712415 19.246579 18.336099 -5.576579 -14.205927 1.162622 11.039041 24.276402 98.907653 -36.270372 9.020957 -58.313758 0.001501 -0.0 -0.001077 -0.003719 -0.0 0.003777 -157.846275 -65.803647 175.512888 -0.097153 0.990097 -31.960237 39.280543 -48.814842 -113.54301 173.990697 -2.378084 145.861692 -68.482389 37.953171 35.660059 -135.169862 -27.100616 85.438747 -27.074689 30.40276 19.8085 7.676532 0.301772 -1.384434 7.90428 -24.807584 -3.013299 -163.342943 -4.700054 143.324181 -0.001372 -0.060662 -0.020286 -148.214975 -76.781384 -171.092207 9.186929 29.475043 8.015923 -146.404991 6.934502 -142.344653 149.904679 22.421673 -154.97518 14.458802 -77.888138 -24.870667 -15.264638 59.479801 150.606324 165.079266 14.962706 -138.480952 10.774735 10.170032 -2.586865 37.052516 22.413811 -37.433547 -12.216519 -21.784724 5.120099 -0.301346 18.333574 -3.659695 6.646746 17.108893 -4.325231 -91.966793 -78.564868 -62.905158 0.015211 -1.323111 0.416128 23.28148 72.959465 -36.416814 138.443292 -6.228808 135.657394 7.865592 -21.317896 10.828901 179.996147 75.748962 0.002636 133.832844 5.778819 94.331011 94.148489 7.408642 -137.549644 171.943534 -12.179063 -33.28025 179.996147 75.748962 0.002636 -145.052249 -22.586309 -118.792382 -102.967877 -18.24768 76.963739 -155.493105 -15.495951 -15.336561
